<?xml version="1.0" encoding="UTF-8"?><svg id="Layer_2" xmlns="http://www.w3.org/2000/svg" viewBox="0 0 217.82 148.7"><defs><style>.cls-1{fill:#231f20;}</style></defs><g id="Layer_1-2"><path class="cls-1" d="M140.98,88.76l41.14-18.25,21.26-29.12-7.2,.19s-4.86,.14-6.47,.81c-1.2,.51-4.24,3-4.24,3l-4.63,4.51-39.86,38.85Z"/><g><path class="cls-1" d="M142.15,90.32s-2.71,1.3-6.13,.89c-3.28-.4-5.47-2.03-5.47-2.03l-11.05-7.83V0L0,.55V148.7H57.55v-.09l19.58,.09,4.15-17.68s.1-.43,.13-.88c.06-.9,.04-1.54,.04-1.54l-.03-2.68s.16-2.11-.65-3.42c-.66-1.06-1.95-1.81-1.95-1.81L22.05,81.49s-1.42-1-1.89-2.59c-.58-1.97-.02-3.18-.02-3.18l6.76-20.67s4.91-15.11,6.89-19.44c1.01-2.2,1.74-3.13,2.69-4.3,1.76-2.16,4.25-4.08,7.9-5.38,1.02-.37,3.29-.94,6.96-.99,2.33-.03,7.26,.65,9.69,.81,9.82,.63,39.34,.55,39.34,.55l-32.07,13.94s-2.36,.81-4,3c-1.64,2.19-1.44,3.56-1.4,4.81,.05,1.39,.01,2.95,1.62,4.88,1.65,1.98,4.64,2.22,4.64,2.22l10,.43s2.65,.14,4.26,.67c1.28,.42,3.44,1.99,3.44,1.99l32.63,23.12v42.72l-2.94,3.6s-.86,.85-1.48,2.44c-.46,1.2-.43,2.05-.46,2.75-.17,3.87-.38,15.84-.38,15.84h5.26v-24.59l90.81-45.81s1.15-.56,1.86-1.81c.63-1.1,.94-2.24,.94-2.24l4.71-16.02-75.67,32.09Z"/><path class="cls-1" d="M109.3,130.18c-.42-.84-1.18-1.52-1.18-1.52l-2.25-2.06s-1.4-1.19-2.75-1.77c-1.14-.49-2.23-.57-2.23-.57l-5.92-.8s-1.67-.41-3.01,.19c-1.29,.58-1.87,1.53-1.87,1.53l-2.29,3.24s-1.04,1.35-1.48,2.27c-.83,1.72-.95,2.21-.95,2.21l-4.75,15.81h30.5l-1.08-16.33s-.08-.92-.73-2.19Z"/></g></g></svg>